<svg xmlns="http://www.w3.org/2000/svg" viewBox="0 0 10.668 15.545" role="img" aria-labelledby="t">
<title id="t">F-35 Lightning II, top view outline, 10.668 m by 15.545 m</title>
<!-- Source: https://commons.wikimedia.org/wiki/File:F-35A_Top.jpg | Credit: F-35 Joint Program Office (jsf.mil), via Wikimedia Commons | License: Public domain (U.S. government work) (https://commons.wikimedia.org/wiki/Template:PD-USGov-Military) | Changes: Outline traced from the top-view rendering; scaled to the recorded length and wingspan -->
<path d="M5.33 0.00 L5.65 0.60 L5.78 0.95 L6.14 3.85 L6.22 4.27 L6.38 4.64 L6.79 4.20 L6.99 4.59 L7.10 7.04 L7.45 7.73 L7.58 7.86 L10.67 9.94 L10.67 11.46 L10.65 11.48 L7.16 12.35 L7.40 12.94 L7.46 13.00 L8.96 14.02 L8.96 14.87 L8.72 14.96 L6.34 15.54 L6.31 15.48 L6.22 14.92 L6.12 14.06 L5.98 13.61 L5.96 13.40 L5.67 13.96 L5.61 13.94 L5.59 13.97 L5.56 13.94 L5.53 13.96 L5.50 13.94 L5.40 13.97 L5.37 13.93 L5.33 13.97 L5.29 13.93 L5.26 13.97 L5.22 13.93 L5.19 13.96 L5.16 13.94 L5.13 13.97 L5.10 13.94 L4.99 13.97 L4.74 13.43 L4.70 13.38 L4.68 13.40 L4.68 13.57 L4.54 14.08 L4.35 15.51 L4.32 15.54 L1.72 14.89 L1.70 14.87 L1.70 14.03 L3.23 12.98 L3.49 12.35 L2.35 12.06 L2.07 12.01 L1.74 11.90 L1.71 11.93 L1.67 11.89 L0.00 11.47 L0.00 9.93 L3.16 7.80 L3.52 7.11 L3.56 7.00 L3.66 4.59 L3.87 4.20 L4.28 4.63 L4.44 4.26 L4.53 3.83 L4.83 1.17 L4.87 1.04 L4.86 1.01 L5.00 0.63 Z" fill="none" stroke="#e8e4dc" stroke-width="1.5" stroke-linejoin="round" vector-effect="non-scaling-stroke"/>
</svg>
