<svg xmlns="http://www.w3.org/2000/svg" viewBox="0 0 4.963 70" role="img" aria-labelledby="t">
<title id="t">Falcon 9, side view outline, 4.963 m by 70 m</title>
<!-- Source: https://commons.wikimedia.org/wiki/File:Falcon9_rocket_family.svg | Credit: Lucabon (based on work of Markus Säynevirta, Craigboy and Rressi), CC BY-SA 4.0, via Wikimedia Commons | License: CC BY-SA 4.0 (https://creativecommons.org/licenses/by-sa/4.0/) | Changes: Falcon 9 Block 5 (payload fairing) figure cropped; outline traced; logos, flags, labels and interior detail removed; scaled to the recorded height. This outline is released under CC BY-SA 4.0 -->
<path d="M2.19 0.00 L2.80 0.00 L3.08 0.15 L4.16 1.48 L4.65 2.59 L4.96 4.19 L4.96 11.90 L4.28 13.07 L4.28 27.99 L4.47 28.30 L4.41 28.79 L4.53 28.97 L4.53 33.23 L4.41 33.72 L4.41 58.87 L4.72 67.81 L4.28 68.24 L4.28 68.55 L4.04 68.92 L4.28 69.85 L3.08 69.88 L2.96 70.00 L0.74 69.88 L0.71 69.60 L0.96 68.92 L0.71 68.61 L0.65 68.24 L0.22 67.69 L0.46 59.74 L0.65 58.56 L0.65 29.90 L0.52 29.78 L0.52 28.23 L0.65 28.05 L0.65 13.01 L0.03 11.96 L0.00 11.62 L0.00 4.59 L0.15 3.27 L0.59 1.91 L1.39 0.68 Z" fill="none" stroke="#e8e4dc" stroke-width="1.5" stroke-linejoin="round" vector-effect="non-scaling-stroke"/>
</svg>
